<?xml version="1.0" encoding="UTF-8" standalone="no"?>
<svg
   xmlns:dc="http://purl.org/dc/elements/1.1/"
   xmlns:cc="http://creativecommons.org/ns#"
   xmlns:rdf="http://www.w3.org/1999/02/22-rdf-syntax-ns#"
   xmlns:svg="http://www.w3.org/2000/svg"
   xmlns="http://www.w3.org/2000/svg"
   xmlns:sodipodi="http://sodipodi.sourceforge.net/DTD/sodipodi-0.dtd"
   xmlns:inkscape="http://www.inkscape.org/namespaces/inkscape"
   version="1.1"
   viewBox="182 72 12.8 12.8"
   width="16"
   height="16"
   id="svg2"
   inkscape:version="0.48.2 r9819"
   sodipodi:docname="bin_closed.svg">
  <sodipodi:namedview
     pagecolor="#ffffff"
     bordercolor="#666666"
     borderopacity="1"
     objecttolerance="10"
     gridtolerance="10"
     guidetolerance="10"
     inkscape:pageopacity="0"
     inkscape:pageshadow="2"
     inkscape:window-width="982"
     inkscape:window-height="597"
     id="namedview20"
     showgrid="false"
     inkscape:zoom="11.105882"
     inkscape:cx="-3.3554025"
     inkscape:cy="10.625"
     inkscape:window-x="0"
     inkscape:window-y="0"
     inkscape:window-maximized="0"
     inkscape:current-layer="svg2" />
  <metadata
     id="metadata4">
    <dc:date>2012-04-03 08:59Z</dc:date>
    <!-- Produced by OmniGraffle Professional 5.3.6 -->
    <rdf:RDF>
      <cc:Work
         rdf:about="">
        <dc:format>image/svg+xml</dc:format>
        <dc:type
           rdf:resource="http://purl.org/dc/dcmitype/StillImage" />
      </cc:Work>
    </rdf:RDF>
  </metadata>
  <defs
     id="defs6" />
  <g
     id="g8"
     style="fill:none;stroke:none"
     transform="matrix(0.7,0,0,0.7,56.45,22.099352)">
    <title
       id="title10">Arbeitsfläche 1</title>
    <g
       id="g12">
      <title
         id="title14">Ebene 1</title>
      <path
         d="m 185.00003,74.429497 c 0,1 0,0 0,0 l 0,2 1.99999,0 0,-2 3.00001,0 0,2 2,0 0,-2 c 0,-2 -1,-2 -2,-2 l -3.00001,0 c -1.99999,0 -1.99999,1 -1.99999,2 z"
         id="path16"
         inkscape:connector-curvature="0"
         style="fill:#787878" />
      <path
         d="m 191.99998,85.929504 c 0,0.275016 -0.22499,0.499993 -0.5,0.499993 -0.27497,0 -0.5,-0.224977 -0.5,-0.499993 l 0,-7.414001 c 0,-0.273987 0.22503,-0.500008 0.5,-0.500008 0.27501,0 0.5,0.226021 0.5,0.500008 z m -2.99998,0 c 0,0.275016 -0.22502,0.499993 -0.5,0.499993 -0.27501,0 -0.5,-0.224977 -0.5,-0.499993 l 0,-7.414001 c 0,-0.273987 0.22499,-0.500008 0.5,-0.500008 0.27498,0 0.5,0.226021 0.5,0.500008 z m -3,0 c 0,0.275016 -0.22501,0.499993 -0.50002,0.499993 -0.27497,0 -0.5,-0.224977 -0.5,-0.499993 l 0,-7.414001 c 0,-0.273987 0.22503,-0.500008 0.5,-0.500008 0.27501,0 0.50002,0.226021 0.50002,0.500008 z m 9,-10 c 0,-0.275032 -0.22502,-0.500007 -0.5,-0.500007 l -12,0 c -0.27501,0 -0.5,0.224975 -0.5,0.500007 l 0,1 c 0,0.27501 0.22499,0.499993 0.5,0.499993 0.27498,0 0.5,0.224975 0.5,0.500007 l 0,10 c 0,0.275026 0.22501,0.499993 0.5,0.499993 l 10,0 c 0.27496,0 0.5,-0.224967 0.5,-0.499993 l 0,-10 c 0,-0.275032 0.22499,-0.500007 0.5,-0.500007 0.27498,0 0.5,-0.224983 0.5,-0.499993 z"
         id="path18"
         inkscape:connector-curvature="0"
         style="fill:#787878" />
    </g>
  </g>
</svg>
