<?xml version="1.0" encoding="UTF-8" standalone="no"?>
<svg
   xmlns:dc="http://purl.org/dc/elements/1.1/"
   xmlns:cc="http://creativecommons.org/ns#"
   xmlns:rdf="http://www.w3.org/1999/02/22-rdf-syntax-ns#"
   xmlns:svg="http://www.w3.org/2000/svg"
   xmlns="http://www.w3.org/2000/svg"
   xmlns:sodipodi="http://sodipodi.sourceforge.net/DTD/sodipodi-0.dtd"
   xmlns:inkscape="http://www.inkscape.org/namespaces/inkscape"
   version="1.1"
   viewBox="354 610 12 12"
   width="1pc"
   height="1pc"
   id="svg2"
   inkscape:version="0.48.2 r9819"
   sodipodi:docname="pencil.svg">
  <sodipodi:namedview
     pagecolor="#ffffff"
     bordercolor="#666666"
     borderopacity="1"
     objecttolerance="10"
     gridtolerance="10"
     guidetolerance="10"
     inkscape:pageopacity="0"
     inkscape:pageshadow="2"
     inkscape:window-width="1391"
     inkscape:window-height="965"
     id="namedview22"
     showgrid="false"
     inkscape:zoom="15.733333"
     inkscape:cx="7.1120974"
     inkscape:cy="7.4999998"
     inkscape:window-x="29"
     inkscape:window-y="92"
     inkscape:window-maximized="0"
     inkscape:current-layer="g12" />
  <metadata
     id="metadata4">
    <dc:date>2012-03-29 14:00Z</dc:date>
    <!-- Produced by OmniGraffle Professional 5.3.6 -->
    <rdf:RDF>
      <cc:Work
         rdf:about="">
        <dc:format>image/svg+xml</dc:format>
        <dc:type
           rdf:resource="http://purl.org/dc/dcmitype/StillImage" />
      </cc:Work>
    </rdf:RDF>
  </metadata>
  <defs
     id="defs6" />
  <g
     style="fill:none;stroke:none"
     id="g12">
    <title
       id="title14">Ebene 1</title>
    <g
       id="g2986"
       transform="matrix(0.80037779,0,0,0.80037779,71.866142,122.99999)">
      <path
         d="m 354.00015,621.91815 0.27677,-1.94909 0.27832,-1.95069 1.67392,1.67316 1.67236,1.67157 -1.94989,0.2791 z"
         id="path16"
         inkscape:connector-curvature="0"
         style="fill:#787878;fill-opacity:1" />
      <path
         d="m 363.47028,614.66052 -5.01783,5.01941 -0.55664,-0.55663 5.01703,-5.0194 -1.11569,-1.11574 -5.01862,5.01782 -0.55825,-0.55743 5.01941,-5.01782 -0.55744,-0.55743 -5.57529,5.57525 3.34549,3.34552 5.5745,-5.57611 z"
         id="path18"
         inkscape:connector-curvature="0"
         style="fill:#787878;fill-opacity:1" />
      <path
         d="m 365.77972,613.5583 c 0.29502,-0.29268 0.28468,-0.78492 -0.0223,-1.09187 l -2.22901,-2.23059 c -0.30614,-0.30614 -0.79919,-0.31488 -1.09183,-0.0215 -0.0239,0.0239 -0.035,0.0549 -0.0549,0.0803 l -0.0127,-0.0135 -1.07114,1.0703 3.34546,3.34552 1.07037,-1.07117 -0.0143,-0.0143 c 0.027,-0.0199 0.0565,-0.0286 0.0803,-0.0533 z"
         id="path20"
         inkscape:connector-curvature="0"
         style="fill:#787878;fill-opacity:1" />
    </g>
  </g>
</svg>
