<?xml version="1.0" encoding="UTF-8" standalone="no"?>
<svg
   xmlns:dc="http://purl.org/dc/elements/1.1/"
   xmlns:cc="http://creativecommons.org/ns#"
   xmlns:rdf="http://www.w3.org/1999/02/22-rdf-syntax-ns#"
   xmlns:svg="http://www.w3.org/2000/svg"
   xmlns="http://www.w3.org/2000/svg"
   xmlns:sodipodi="http://sodipodi.sourceforge.net/DTD/sodipodi-0.dtd"
   xmlns:inkscape="http://www.inkscape.org/namespaces/inkscape"
   version="1.1"
   viewBox="238 76 12.8 12.8"
   width="16"
   height="16"
   id="svg2"
   inkscape:version="0.48.2 r9819"
   sodipodi:docname="break_warning.svg">
  <sodipodi:namedview
     pagecolor="#ffffff"
     bordercolor="#666666"
     borderopacity="1"
     objecttolerance="10"
     gridtolerance="10"
     guidetolerance="10"
     inkscape:pageopacity="0"
     inkscape:pageshadow="2"
     inkscape:window-width="1141"
     inkscape:window-height="505"
     id="namedview18"
     showgrid="false"
     inkscape:zoom="11.8"
     inkscape:cx="-0.80508475"
     inkscape:cy="10"
     inkscape:window-x="1953"
     inkscape:window-y="123"
     inkscape:window-maximized="0"
     inkscape:current-layer="svg2" />
  <metadata
     id="metadata4">
    <dc:date>2012-04-10 08:23Z</dc:date>
    <!-- Produced by OmniGraffle Professional 5.3.6 -->
    <rdf:RDF>
      <cc:Work
         rdf:about="">
        <dc:format>image/svg+xml</dc:format>
        <dc:type
           rdf:resource="http://purl.org/dc/dcmitype/StillImage" />
      </cc:Work>
    </rdf:RDF>
  </metadata>
  <defs
     id="defs6" />
  <g
     id="g8"
     style="fill:none;stroke:none"
     transform="matrix(0.7308185,0,0,0.7308185,64.86521,20.763542)">
    <title
       id="title10">Arbeitsfläche 1</title>
    <g
       id="g12">
      <title
         id="title14">Ebene 1</title>
      <path
         d="m 245.93753,90.50236 c -0.83302,0 -1.51203,-0.672 -1.51203,-1.497935 0,-0.847055 0.66402,-1.51004 1.51203,-1.51004 0.82597,0 1.49799,0.675965 1.49799,1.51004 0,0.81192 -0.68599,1.497935 -1.49799,1.497935 m -0.81604,-11.17496 1.58803,0 c 0.47598,0 0.54701,0.277985 0.54701,0.444985 0,0.06604 0,0.06604 -0.005,0.143015 l -0.01,0.167043 -0.32702,5.804947 c -0.046,0.448013 -0.24098,0.53299 -0.56098,0.53299 l -0.846,0 c -0.31999,0 -0.51503,-0.08498 -0.561,-0.51995 L 244.6085,79.9154 c -0.004,-0.07902 -0.004,-0.07902 -0.004,-0.143015 0,-0.167 0.067,-0.444985 0.51697,-0.444985 m 5.95906,-0.407036 c -2.99301,-2.989967 -7.84402,-2.989967 -10.83504,0 -2.99401,2.991013 -2.99401,7.844002 0,10.836006 2.99198,2.99196 7.84401,2.99103 10.83504,0 2.99298,-2.99003 2.99298,-7.844993 0,-10.836006"
         id="path16"
         inkscape:connector-curvature="0"
         style="fill:#ea8950" />
    </g>
  </g>
</svg>
