<svg xmlns="http://www.w3.org/2000/svg" width="20" height="16"><defs><clipPath><path d="M0 0h595.275v446.457h-595.275v-446.457z"/></clipPath><clipPath><path d="M0 0h595.276v595.276h-595.276v-595.276z"/></clipPath><clipPath><path d="M0 0h595.276v595.276h-595.276v-595.276z"/></clipPath><clipPath><path d="M0 0h595.276v595.276h-595.276v-595.276z"/></clipPath><clipPath><path d="M0 0h595.276v595.276h-595.276v-595.276z"/></clipPath></defs><path d="M16.079 3.813c-.541-.011-1.065.173-1.559.396-1.55.732-2.922 1.862-4.238 2.994l-.567.499.17.205c.374-.34.751-.676 1.132-1.005 1.227-1.05 2.503-2.123 3.954-2.785.355-.155.724-.281 1.108-.304m-11.986 11.045l-.04.006.027.002.046-.002-.033-.006zm.375-.002l-.045.008.03.001.052-.005-.037-.005zm-.195-.032l-.092.02.078.009.097-.013-.084-.016zm-.186-.046l-.108.028.097.02.114-.021-.103-.027m-.177-.057l-.106.033-.023-.03.075-.023-.116-.048-.046-.047.03.014.129-.059-.129-.065-.079.044-.022-.031.061-.034-.127-.074-.045-.054.03.019.131-.094-.135-.09-.088.072-.02-.031.076-.064-.131-.098-.029.028-.02-.032.02-.019-.064-.053-.032-.053.111.092.133-.132c-.198-.162-.382-.339-.553-.53l-.03-.062c.184.209.383.402.599.576l.153-.156c-.422-.347-.785-.76-1.094-1.218l-.026-.071c.319.48.696.912 1.138 1.271l.174-.183c-.624-.517-1.127-1.171-1.524-1.902l-.087-.173-.019-.079.114.229c.398.734.905 1.39 1.534 1.906l.198-.211c-.589-.495-1.078-1.105-1.473-1.787-.233-.424-.422-.863-.567-1.314l-.008-.081c.148.472.343.93.586 1.371.398.684.889 1.296 1.483 1.79l.225-.24c-.548-.468-1.014-1.031-1.403-1.657-.458-.782-.765-1.621-.922-2.49l.003-.079c.154.888.464 1.746.932 2.543.391.628.859 1.192 1.411 1.66l.253-.271c-.501-.437-.936-.948-1.31-1.513-.688-1.105-1.073-2.33-1.152-3.594l.013-.071c.071 1.28.457 2.52 1.154 3.638.376.567.814 1.08 1.318 1.516l.283-.302c-.447-.4-.846-.856-1.197-1.355-.906-1.366-1.351-2.931-1.299-4.541l.02-.063c-.061 1.622.384 3.199 1.298 4.575.353.501.753.958 1.203 1.358l.314-.334c-.389-.356-.741-.753-1.061-1.182-1.105-1.571-1.61-3.426-1.408-5.331l.024-.054c-.211 1.914.293 3.778 1.405 5.355.321.431.676.829 1.066 1.185l.346-.365c-.325-.306-.626-.64-.904-.996-1.28-1.725-1.859-3.815-1.512-5.967l.027-.047c-.354 2.158.224 4.254 1.508 5.981.28.357.584.691.916.992l.371-.387c-.257-.25-.5-.516-.729-.796-1.429-1.833-2.099-4.105-1.632-6.463l.029-.04c-.471 2.361.198 4.636 1.63 6.469.23.281.475.547.734.798l.408-.421c-.186-.187-.365-.381-.537-.583-1.53-1.879-2.307-4.244-1.802-6.733l.025-.108.03-.035-.029.127c-.499 2.484.278 4.842 1.805 6.714.173.203.354.398.541.585l.439-.446-.331-.359c-1.583-1.873-2.471-4.248-2.021-6.796l.071-.325.031-.03-.074.339c-.444 2.541.443 4.908 2.023 6.775l.335.362.467-.466-.116-.126c-1.626-1.866-2.621-4.241-2.245-6.837l.093-.474.031-.026-.094.485c-.369 2.59.624 4.955 2.247 6.815l.119.129.492-.481c-1.603-1.843-2.64-4.168-2.365-6.743.024-.192.055-.382.092-.571l.032-.022c-.037.191-.068.384-.091.579-.268 2.57.768 4.885 2.369 6.722l.513-.491c-1.512-1.799-2.52-4.02-2.365-6.496.016-.211.042-.42.073-.628l.033-.018c-.031.21-.056.42-.071.633-.147 2.47.859 4.681 2.368 6.474l.53-.495c-1.419-1.751-2.387-3.859-2.361-6.226.005-.218.021-.435.04-.652l.033-.016c-.018.218-.033.436-.038.656-.018 2.359.948 4.459 2.363 6.204l.542-.492c-1.326-1.698-2.248-3.69-2.353-5.936l-.002-.651.033-.013.005.654c.113 2.238 1.031 4.222 2.355 5.913l.568-.5c1.317-1.133 2.692-2.262 4.246-2.99.537-.24 1.123-.444 1.709-.378l.035.047c-.43-.009-.851.136-1.247.31-1.448.667-2.721 1.741-3.946 2.791-.381.329-.757.664-1.13 1.004l.179.206c.548-.508 1.102-1.008 1.667-1.496 1.125-.965 2.294-1.978 3.633-2.574.273-.116.558-.211.851-.231l.022.03c-.293.019-.579.118-.852.234-1.335.602-2.5 1.615-3.624 2.581-.563.487-1.116.987-1.663 1.494l.188.206c.711-.668 1.429-1.328 2.163-1.968 1.017-.879 2.072-1.83 3.291-2.362.168-.069.341-.128.518-.157l.021.03c-.177.029-.351.09-.519.16-1.215.537-2.267 1.489-3.282 2.369-.732.639-1.448 1.298-2.157 1.966l.069.074.126.131c.861-.819 1.726-1.632 2.614-2.417.904-.794 1.843-1.683 2.939-2.152l.244-.083.021.03-.244.085c-1.092.474-2.027 1.364-2.93 2.159-.885.785-1.748 1.597-2.607 2.415l.202.201c.997-.957 1.992-1.916 3.015-2.841.791-.71 1.614-1.54 2.585-1.947l.024-.009.02.03-.025.01c-.967.414-1.787 1.244-2.576 1.955-1.019.925-2.012 1.883-3.006 2.838l.207.197c1.118-1.082 2.225-2.177 3.362-3.236.64-.592 1.306-1.311 2.09-1.686l.02.03c-.781.381-1.444 1.1-2.082 1.694-1.132 1.06-2.236 2.154-3.352 3.234l.212.191c1.225-1.192 2.426-2.413 3.653-3.603.497-.48 1.017-1.085 1.624-1.432l.019.03c-.604.352-1.121.957-1.617 1.438l-3.64 3.6.223.176c1.315-1.285 2.59-2.616 3.879-3.931.385-.392.773-.852 1.221-1.179l.019.03c-.446.33-.831.791-1.215 1.184-1.285 1.319-2.558 2.651-3.872 3.936l.218.176.503-.496c1.218-1.216 2.393-2.478 3.562-3.749.286-.31.565-.646.877-.931l.018.031c-.309.288-.587.624-.872.935-1.164 1.274-2.338 2.537-3.554 3.753l-.494.488.221.165c.326-.317.647-.639.966-.965 1.112-1.143 2.182-2.331 3.221-3.552l.587-.692.018.031-.583.695c-1.034 1.225-2.102 2.414-3.213 3.558-.315.322-.633.641-.955.955l.223.154c.472-.46.935-.93 1.389-1.411 1.003-1.068 1.966-2.179 2.868-3.348l.348-.462.017.032-.345.462c-.897 1.173-1.859 2.285-2.86 3.354-.45.477-.908.944-1.376 1.4l.223.142c.607-.589 1.196-1.2 1.767-1.83.892-.992 1.75-2.025 2.511-3.139l.158-.238.016.033-.155.237c-.755 1.118-1.612 2.152-2.503 3.145-.565.626-1.149 1.232-1.751 1.818l.224.129c.729-.705 1.428-1.445 2.094-2.219.782-.918 1.541-1.874 2.158-2.93l.011-.019.016.033-.009.016c-.612 1.061-1.37 2.018-2.15 2.937-.66.769-1.353 1.504-2.076 2.205l.222.115c.837-.806 1.631-1.663 2.37-2.575.631-.788 1.254-1.612 1.721-2.529l.015.034c-.462.918-1.083 1.743-1.712 2.532-.732.906-1.519 1.758-2.348 2.56l.221.101c.931-.892 1.804-1.854 2.591-2.897.488-.657.982-1.349 1.326-2.114l.014.035c-.341.765-.833 1.457-1.319 2.114-.78 1.037-1.644 1.993-2.567 2.881l.219.086c1.011-.964 1.949-2.017 2.759-3.183.365-.535.728-1.098.982-1.71l.014.036c-.252.611-.613 1.174-.976 1.709-.802 1.159-1.73 2.207-2.732 3.166l.216.071c1.077-1.019 2.067-2.152 2.875-3.433.257-.418.505-.854.688-1.318l.013.036c-.181.463-.427.899-.682 1.316-.798 1.273-1.779 2.4-2.845 3.414l.212.056c1.129-1.061 2.163-2.261 2.941-3.648.164-.301.319-.612.441-.937l.012.037c-.121.323-.274.633-.436.932-.768 1.378-1.791 2.571-2.908 3.627l.208.041c1.166-1.088 2.238-2.345 2.961-3.827.087-.184.168-.373.239-.565l.011.038c-.069.19-.149.377-.234.559-.714 1.471-1.771 2.72-2.924 3.804l.202.027c1.191-1.103 2.295-2.408 2.939-3.972l.076-.203.01.039-.073.195c-.634 1.551-1.722 2.848-2.898 3.946l.196.012c1.168-1.071 2.266-2.371 2.828-3.936l.009.04c-.553 1.545-1.631 2.833-2.779 3.897l.188-.002c1.087-.988 2.131-2.212 2.638-3.673l.008.041c-.499 1.439-1.519 2.649-2.585 3.629l.18-.015c1.009-.906 1.973-2.042 2.446-3.39l.007.042c-.465 1.323-1.401 2.442-2.386 3.34l.169-.027c.936-.827 1.801-1.866 2.251-3.095l.006.042c-.44 1.201-1.275 2.219-2.183 3.038l.157-.037c.86-.745 1.629-1.682 2.054-2.788l.005.043c-.413 1.073-1.149 1.986-1.975 2.722l.141-.045c.779-.661 1.457-1.493 1.855-2.472l.004.043c-.384.94-1.023 1.744-1.761 2.394l.119-.048c.696-.575 1.287-1.3 1.656-2.152l.003.044c-.349.802-.894 1.492-1.537 2.053l.087-.043c.611-.489 1.12-1.108 1.458-1.833l.002.044c-.307.656-.753 1.226-1.289 1.694l.03-.018c.527-.404.959-.919 1.263-1.52l.001.045c-.24.474-.56.895-.945 1.255.387-.309.704-.69.945-1.125v.042c-.307.551-.734 1.009-1.26 1.343-.137.102-.278.194-.425.278-.154.106-.313.203-.477.289-.171.109-.347.209-.528.298-.187.111-.38.213-.576.304-.203.113-.41.215-.621.307-.216.113-.436.215-.661.306-.227.111-.458.212-.694.301-.236.108-.476.206-.719.292-.242.104-.487.198-.736.28-.244.099-.492.187-.743.263-.244.092-.491.174-.742.243-.241.085-.484.159-.731.221-.234.077-.471.143-.71.196-.225.068-.453.125-.683.17-.214.059-.43.107-.648.144-.201.049-.403.089-.608.116-.186.041-.375.071-.564.09-.171.032-.344.054-.517.065-.155.024-.312.038-.469.041-.14.016-.28.023-.421.02h-.373l-.183-.003-.045-.057.041.007.085-.008-.074-.018-.057.011-.024-.03-.03-.04.095.028.119-.028-.112-.038m.981.113l-.051.011h.033l.059-.008-.041-.003zm-.217-.025l-.105.026.088.006.11-.019-.093-.012zm-.208-.039l-.124.036.109.016.13-.029-.115-.024m-.198-.051l-.131.044.119.027.137-.037-.125-.034m-.189-.064l-.131.052.122.038.138-.045-.129-.045m-.181-.075l-.127.059.122.048.135-.052-.13-.055m1.465.209l-.057.014.037-.002.065-.011-.045-.001zm-.24-.016l-.118.032.097.002.123-.026-.103-.009zm-.229-.031l-.141.044.122.012.147-.037-.127-.019m-.219-.045l-.15.054.132.023.156-.046-.139-.03m-.21-.058l-.152.062.136.034.158-.055-.143-.041m-.201-.07l-.149.07.137.045.156-.063-.144-.052m-.193-.082l-.144.078.136.055.152-.071-.143-.062m-.184-.092l-.138.085.133.065.146-.078-.141-.072m-.177-.102l-.131.093.13.074.139-.086-.138-.081m2.172.429l-.063.017.041-.004.071-.014-.049.001zm-.261-.006l-.131.04.107-.002.137-.033-.112-.005zm-.251-.022l-.159.053.134.007.164-.046-.139-.014m-.24-.037l-.17.064.146.018.176-.056-.152-.025m-.231-.051l-.173.073.151.029.18-.066-.157-.037m-.221-.065l-.172.082.152.04.179-.074-.159-.048m-.212-.077l-.168.09.151.052.175-.083-.158-.059m-.204-.089l-.163.098.148.062.17-.091-.156-.069m-.196-.1l-.156.107.145.072.164-.099-.153-.079m-.188-.11l-.149.115.141.081.157-.107-.149-.089m-.18-.12l-.141.123.137.09.149-.115-.145-.097m-.173-.128l-.133.131.133.098.141-.124-.14-.105m2.924.713l-.069.021.044-.006.078-.018-.053.003zm-.282.004l-.145.047.117-.007.149-.04h-.121zm-.272-.013l-.176.063.146.001.181-.055-.151-.009m-.261-.029l-.19.075.16.012.195-.067-.165-.02m-.251-.044l-.195.086.165.024.201-.077-.171-.032m-.241-.058l-.195.095.167.036.202-.087-.173-.043m-.232-.072l-.192.104.166.047.199-.096-.173-.055m-.223-.085l-.188.112.163.058.195-.105-.17-.066m-.215-.097l-.182.121.16.069.19-.113-.168-.077m-.206-.108l-.175.13.156.079.183-.121-.164-.087m-.198-.118l-.168.138.152.088.176-.13-.159-.096m-.19-.128l-.161.147.147.097.168-.139-.155-.105m-.183-.137l-.153.156.142.105.16-.148-.149-.113m3.366.766l-.075.024.047-.007.083-.022-.056.005zm-.302.015l-.157.055.125-.012.162-.048-.13.004m-.291-.003l-.192.073.158-.005.196-.065-.162-.004m-.281-.02l-.209.087.173.006.214-.078-.178-.015m-.271-.036l-.217.098.18.018.222-.09-.185-.027m-.261-.052l-.218.108.182.03.224-.1-.188-.039m-.251-.066l-.217.118.181.042.224-.11-.187-.051m-.242-.08l-.214.127.178.054.221-.119-.185-.062m-.234-.093l-.209.136.175.066.216-.128-.182-.074m-.225-.105l-.203.145.171.076.21-.137-.178-.084m-.216-.116l-.196.155.167.086.204-.146-.174-.095m-.208-.127l-.189.163.162.096.196-.155-.169-.104m-.2-.137l-.182.173.157.105.189-.164-.164-.113m-.192-.146l-.175.182.151.113.182-.174-.158-.121m3.824.819l-.079.028.05-.009.089-.025-.059.007zm-.319.026l-.168.063.133-.017.172-.055-.137.009m-.309.007l-.208.084.168-.011.212-.075-.172.002m-.299-.011l-.228.099h.185l.231-.09-.189-.009m-.289-.028l-.238.112.193.012.242-.103-.197-.021m-.279-.044l-.242.123.196.025.247-.114-.201-.033m-.27-.06l-.242.133.196.037.248-.125-.201-.046m-.261-.074l-.24.143.193.05.246-.134-.2-.058m-.252-.088l-.236.153.19.062.242-.144-.197-.07m-.243-.101l-.231.162.186.073.238-.154-.193-.082m-.234-.114l-.226.172.182.084.232-.163-.188-.093m-.226-.125l-.219.181.176.094.226-.173-.183-.103m-.217-.136l-.212.191.171.104.219-.182-.178-.113m-.209-.146l-.205.2.165.113.212-.192-.172-.121m-.2-.155l-.199.21.16.121.205-.201-.166-.13m4.292.876l-.083.031.052-.011.093-.029-.062.009zm-.333.037l-.178.071.14-.022.182-.063-.144.014m-.324.018l-.222.094.178-.017.224-.085-.181.007m-.315-.001l-.245.111.196-.007.248-.102-.199-.003m-.305-.019l-.257.125.205.006.26-.116-.209-.015m-.296-.036l-.264.138.209.018.267-.128-.213-.028m-.287-.052l-.266.149.209.032.27-.139-.214-.041m-.278-.068l-.265.159.208.045.27-.15-.213-.054m-.269-.083l-.263.169.205.057.268-.161-.21-.066m-.26-.097l-.259.18.201.069.265-.171-.206-.078m-.252-.11l-.255.19.196.081.261-.181-.202-.09m-.243-.123l-.249.2.191.092.256-.191-.197-.101m-.234-.135l-.244.21.186.102.25-.201-.192-.111m-.226-.145l-.237.22.18.112.243-.21-.186-.121m-.217-.156l-.231.229.174.121.237-.221-.18-.13m-.208-.165l-.225.239.168.13.231-.23-.174-.138m4.76.937l-.086.035.054-.013.096-.032-.063.011zm-.344.048l-.186.079.145-.027.189-.07-.149.018m-.336.028l-.233.104.186-.023.235-.095-.188.013m-.327.008l-.26.123.206-.013.261-.113-.208.003m-.319-.01l-.275.138.216-.001.277-.128-.218-.009m-.31-.028l-.283.152.221.012.286-.142-.223-.022m-.302-.045l-.288.164.222.026.291-.155-.225-.036m-.293-.061l-.289.176.221.039.293-.166-.225-.049m-.285-.077l-.289.187.218.052.293-.177-.223-.062m-.276-.092l-.287.198.215.065.291-.188-.219-.075m-.268-.107l-.283.208.21.078.288-.199-.215-.087m-.259-.12l-.279.219.205.089.285-.209-.21-.099m-.251-.133l-.274.229.2.101.28-.22-.205-.11m-.242-.144l-.269.24.194.111.275-.23-.199-.12m-.233-.156l-.264.25.188.121.269-.24-.193-.13m-.224-.165l-.259.26.182.13.264-.251-.187-.139m-.215-.175l-.253.27.175.138.258-.261-.18-.147m5.218 1.007l-.089.038.055-.015.099-.036-.065.013zm-.351.058l-.192.086.149-.031.195-.077-.152.023m-.344.037l-.243.114.192-.029.244-.104-.192.018m-.337.018l-.272.135.213-.02.272-.124-.214.009m-.33-.001l-.29.151.225-.007.29-.141-.226-.003m-.322-.02l-.301.166.23.006.302-.156-.232-.016m-.314-.038l-.307.179.232.02.31-.169-.235-.03m-.306-.055l-.311.192.232.034.313-.182-.234-.044m-.299-.072l-.313.204.23.047.316-.194-.233-.057m-.29-.087l-.312.216.227.061.316-.205-.231-.071m-.282-.102l-.31.227.223.074.314-.217-.227-.084m-.274-.117l-.308.238.218.086.312-.228-.222-.096m-.266-.13l-.305.249.213.098.309-.239-.217-.108m-.257-.143l-.301.259.207.109.305-.25-.212-.119m-.248-.155l-.296.27.201.12.301-.261-.206-.13m-.239-.166l-.292.281.195.13.296-.271-.199-.139m-.23-.176l-.287.291.188.139.292-.282-.193-.148m-.221-.185l-.283.301.181.147.287-.292-.186-.156m5.655 1.088l-.089.041.056-.016.099-.039-.065.014zm-.354.067l-.196.092.152-.036.198-.083-.153.026m-.349.046l-.249.123.195-.034.249-.112-.195.024m-.343.026l-.281.145.219-.026.28-.134-.218.014m-.337.007l-.301.164.231-.014.301-.152-.231.003m-.33-.012l-.315.18.238-.001.315-.168-.238-.011m-.324-.03l-.324.194.241.013.325-.183-.242-.024m-.317-.048l-.33.207.242.028.331-.197-.243-.039m-.309-.066l-.334.22.24.042.335-.21-.242-.053m-.302-.082l-.335.233.238.056.337-.222-.24-.067m-.294-.098l-.335.245.234.07.338-.234-.237-.08m-.287-.113l-.335.256.23.083.337-.246-.233-.093m-.279-.127l-.333.268.225.096.336-.258-.228-.106m-.27-.141l-.331.28.22.108.334-.27-.223-.118m-.262-.154l-.327.291.214.119.331-.281-.218-.129m-.253-.165l-.324.302.208.129.328-.292-.211-.139m-.244-.176l-.321.312.201.139.324-.303-.204-.149m-.235-.186l-.317.323.194.148.321-.314-.198-.157m-.226-.194l-.314.332.187.156.317-.324-.19-.165m6.06 1.183l-.089.043.055-.018.099-.041-.065.016zm-.353.075l-.197.098.152-.039.198-.089-.153.03m-.349.054l-.253.131.197-.039.251-.12-.195.028m-.345.034l-.287.155.221-.031.285-.143-.219.02m-.34.015l-.309.175.235-.02.307-.163-.233.008m-.335-.005l-.326.192.243-.006.324-.18-.241-.005m-.329-.024l-.337.208.247.008.336-.196-.246-.019m-.323-.042l-.345.222.249.022.345-.211-.248-.034m-.317-.06l-.351.236.248.037.351-.225-.248-.048m-.311-.077l-.355.249.247.052.355-.238-.247-.063m-.304-.093l-.357.262.244.066.358-.251-.245-.077m-.297-.109l-.358.275.24.079.36-.264-.241-.09m-.29-.124l-.359.287.236.093.36-.276-.238-.103m-.282-.139l-.358.299.231.105.36-.288-.233-.116m-.274-.152l-.357.311.225.117.359-.3-.227-.127m-.266-.165l-.355.322.219.128.357-.312-.222-.138m-.257-.176l-.353.333.213.139.355-.323-.215-.149m-.248-.186l-.351.344.206.148.353-.334-.208-.158m-.239-.196l-.348.354.198.157.351-.345-.201-.166m-.229-.204l-.346.363.191.165.348-.355-.193-.173m6.424 1.294l-.088.045.054-.019.097-.043-.063.017zm-.347.081l-.196.103.15-.042.196-.093-.151.033m-.345.061l-.253.138.196-.044.25-.126-.193.032m-.342.041l-.288.163.221-.036.285-.151-.218.024m-.339.022l-.313.184.236-.025.31-.172-.233.013m-.335.002l-.332.203.245-.012.329-.191h-.242m-.331-.017l-.346.22.25.002.343-.208-.248-.014m-.327-.036l-.357.235.253.017.354-.223-.251-.029m-.322-.054l-.365.25.254.032.363-.238-.252-.044m-.317-.072l-.371.264.253.047.369-.253-.252-.059m-.311-.089l-.375.278.251.062.375-.266-.25-.073m-.305-.105l-.378.291.248.076.378-.28-.248-.087m-.298-.121l-.381.304.244.09.381-.293-.244-.101m-.291-.136l-.382.317.24.103.382-.306-.24-.114m-.283-.15l-.383.329.235.115.383-.318-.235-.126m-.276-.164l-.382.341.229.127.383-.33-.23-.138m-.268-.176l-.382.353.223.138.383-.342-.224-.149m-.259-.187l-.381.364.216.149.382-.354-.218-.158m-.25-.197l-.38.374.21.158.381-.365-.211-.167m-.241-.206l-.379.384.202.166.38-.375-.203-.175m-.231-.213l-.377.392.193.174.379-.385-.195-.181m6.737 1.425l-.085.046.052-.019.094-.044-.061.018zm-.337.086l-.192.106.147-.045.192-.096-.147.035m-.337.066l-.249.143.192-.047.246-.131-.189.035m-.336.047l-.286.17.218-.041.282-.157-.214.028m-.334.027l-.313.193.234-.03.309-.179-.23.017m-.332.008l-.334.212.245-.017.329-.199-.24.004m-.329-.012l-.35.23.251-.003.345-.217-.246-.01m-.326-.03l-.363.247.254.012.359-.234-.25-.025m-.323-.049l-.373.263.256.027.37-.25-.252-.04m-.319-.067l-.382.278.256.042.379-.265-.253-.055m-.314-.085l-.389.292.255.058.386-.28-.253-.07m-.309-.102l-.394.306.253.072.392-.294-.251-.084m-.303-.118l-.398.32.25.086.397-.308-.249-.098m-.297-.134l-.401.333.246.1.4-.322-.245-.112m-.291-.149l-.404.346.242.113.403-.335-.241-.125m-.284-.162l-.406.358.237.126.405-.348-.237-.137m-.276-.175l-.407.37.232.138.407-.36-.231-.148m-.268-.187l-.408.382.226.148.408-.372-.226-.158m-.26-.198l-.408.393.219.158.408-.383-.219-.168m-.251-.207l-.409.403.212.167.409-.394-.212-.176m-.242-.215l-.408.411.203.176.409-.404-.204-.183m-.232-.222l-.408.42.202.175.402-.406-.196-.188m6.992 1.576l-.082.047.05-.02.091-.045-.058.018zm-.323.09l-.185.108.141-.047.185-.099-.141.037m-.324.07l-.243.147.187-.05.238-.134-.182.037m-.325.051l-.281.175.213-.044.275-.161-.207.03m-.325.032l-.309.199.23-.034.303-.185-.223.02m-.325.012l-.331.22.241-.021.325-.206-.234.007m-.323-.007l-.35.239.248-.007.343-.225-.242-.007m-.322-.026l-.365.257.253.008.359-.243-.247-.022m-.319-.044l-.377.273.256.023.372-.26-.25-.036m-.317-.063l-.388.289.257.038.383-.276-.252-.052m-.313-.081l-.397.305.257.054.392-.292-.252-.066m-.309-.098l-.404.319.256.069.4-.307-.252-.081m-.305-.115l-.411.334.254.083.407-.321-.25-.096m-.3-.131l-.416.348.251.098.413-.336-.248-.11m-.295-.146l-.421.361.247.111.418-.349-.245-.123m-.289-.161l-.424.374.243.124.422-.363-.241-.135m-.282-.174l-.427.386.238.137.426-.376-.236-.147m-.275-.187l-.43.398.232.148.429-.388-.231-.158m-.267-.198l-.432.409.226.158.431-.399-.225-.168m-.259-.208l-.434.42.22.168.433-.41-.218-.177m-.25-.216l-.435.428.211.177.435-.421-.211-.184m-.241-.224l-.437.437.211.176.429-.422-.203-.19m-.231-.229l-.438.444.196.188.437-.438-.195-.195m7.18 1.747l-.078.047.048-.02.085-.046-.055.019zm-.305.091l-.177.11.135-.048.176-.1-.133.037m-.309.073l-.233.149.179-.052.228-.136-.174.039m-.311.054l-.272.178.205-.046.265-.164-.198.032m-.313.035l-.301.203.222-.036.293-.188-.215.022m-.314.016l-.325.225.234-.024.317-.21-.227.01m-.314-.003l-.344.245.243-.01.337-.231-.235-.004m-.314-.022l-.361.264.248.004.354-.249-.241-.018m-.313-.041l-.375.281.252.019.369-.267-.245-.034m-.311-.059l-.388.298.254.035.382-.284-.248-.049m-.309-.077l-.399.314.255.05.393-.301-.249-.064m-.307-.095l-.409.33.255.066.404-.317-.25-.079m-.303-.112l-.418.345.254.08.412-.332-.249-.093m-.3-.129l-.425.359.252.095.421-.347-.248-.108m-.295-.144l-.432.373.25.109.428-.361-.246-.121m-.29-.159l-.437.387.246.123.434-.375-.242-.134m-.285-.174l-.442.4.242.135.439-.389-.239-.146m-.279-.186l-.447.412.237.147.444-.401-.234-.157m-.272-.198l-.451.423.232.158.448-.413-.229-.168m-.264-.208l-.455.433.226.168.452-.424-.223-.177m-.256-.217l-.457.442.218.177.456-.435-.217-.185m-.248-.225l-.46.45.219.177.45-.436-.209-.191m-.238-.231l-.464.458.204.19.461-.452-.201-.196m-.229-.235l-.466.465.196.194.464-.46-.193-.2m7.3 1.94l-.073.047.045-.02.08-.045-.052.018zm-.286.092l-.167.11.127-.048.165-.099-.125.038m-.29.074l-.221.149.169-.052.216-.136-.163.039m-.294.055l-.259.18.195-.048.252-.165-.187.033m-.297.037l-.289.205.212-.039.281-.19-.204.024m-.299.018l-.313.228.225-.027.305-.213-.216.012m-.301 0l-.334.249.234-.013.326-.234-.226-.002m-.302-.019l-.353.268.241.001.344-.253-.232-.016m-.302-.038l-.369.287.246.017.361-.272-.237-.031m-.303-.056l-.383.304.249.032.375-.29-.241-.046m-.302-.074l-.396.321.251.047.389-.307-.243-.061m-.301-.092l-.408.338.252.063.401-.324-.245-.077m-.298-.109l-.419.353.252.078.412-.34-.245-.091m-.296-.126l-.428.368.251.093.422-.355-.245-.106m-.293-.143l-.437.383.249.107.431-.37-.243-.12m-.289-.158l-.444.396.247.121.439-.384-.241-.133m-.285-.172l-.451.41.243.134.446-.398-.238-.145m-.28-.185l-.458.422.24.146.453-.411-.235-.157m-.274-.198l-.463.433.235.157.459-.423-.231-.168m-.267-.208l-.469.444.23.168.465-.435-.226-.177m-.26-.218l-.473.453.222.178.47-.445-.22-.185m-.252-.226l-.478.461.224.177.466-.447-.213-.192m-.244-.232l-.482.469.21.191.478-.463-.206-.197m-.235-.237l-.487.475.202.196.483-.47-.198-.201m-.225-.24l-.491.48.193.199.487-.476-.12-.127-.07-.076zm7.348 2.152l-.067.046.041-.02.073-.045-.047.018zm-.264.09l-.155.108.118-.048.153-.098-.116.037m-.269.073l-.207.148.158-.053.201-.135-.152.039m-.274.056l-.244.179.183-.048.236-.164-.175.034m-.278.038l-.274.205.2-.039.265-.19-.192.024m-.282.02l-.299.228.214-.028.289-.213-.204.012m-.285.001l-.321.25.224-.015.31-.235-.213-.001m-.287-.017l-.34.27h.231l.33-.255-.221-.015m-.289-.036l-.357.289.236.014.348-.274-.227-.03m-.29-.054l-.373.308.24.03.364-.293-.231-.044m-.291-.072l-.388.325.244.045.379-.311-.234-.059m-.291-.09l-.401.342.246.06.393-.328-.237-.075m-.29-.108l-.414.359.247.076.405-.345-.238-.09m-.289-.124l-.425.374.247.091.417-.361-.239-.104m-.287-.141l-.435.389.246.105.428-.376-.239-.118m-.284-.156l-.445.403.245.119.438-.391-.238-.132m-.281-.171l-.454.416.242.133.447-.405-.236-.144m-.277-.184l-.462.429.239.145.456-.418-.233-.156m-.273-.197l-.469.441.236.157.464-.431-.23-.167m-.267-.208l-.476.451.231.167.471-.442-.226-.177m-.261-.218l-.482.46.225.178.478-.453-.221-.185m-.254-.226l-.488.468.228.177.476-.454-.215-.192m-.247-.233l-.495.476.214.191.49-.47-.208-.198m-.238-.238l-.501.482.206.197.496-.477-.201-.202m-.229-.241l-.507.487.198.201.501-.483-.122-.128-.071-.077zm-.22-.243l-.512.49.067.073.123.13.507-.488-.185-.205m.782-.358l.533-.492-.17-.205-.541.492.178.206m.221.244l.524-.491-.179-.206-.532.492.187.206m.23.242l.516-.489-.188-.206-.523.49.069.074.126.131zm.239.239l.507-.485-.123-.128-.072-.077-.515.488.203.202m.246.234l.499-.479-.202-.202-.506.484.209.197m.253.227l.49-.472-.207-.197-.498.478.215.192m.259.218l.481-.464-.212-.191-.489.471.22.184m.263.21l.472-.456-.216-.184-.479.463.222.177m.268.197l.462-.445-.218-.175-.471.455.227.166m.272.185l.452-.434-.221-.165-.46.444.229.155m.274.171l.441-.421-.222-.154-.45.432.231.143m.277.156l.429-.408-.223-.142-.438.42.232.13m.278.141l.417-.393-.223-.129-.426.406.232.116m.279.124l.404-.378-.222-.115-.414.391.232.102m.279.107l.39-.362-.22-.101-.401.376.23.087m.278.09l.376-.345-.218-.087-.387.36.228.072m.277.072l.361-.328-.215-.072-.372.342.226.057m.275.054l.345-.309-.211-.057-.356.325.222.042m.273.036l.328-.291-.206-.042-.339.306.217.027m.27.018l.31-.271-.2-.028-.322.287.211.012m.267-.001l.291-.251-.193-.014-.303.267.204-.002m.262-.019l.272-.23h-.185l-.282.246.196-.016m.258-.036l.25-.208-.175.012-.26.224.185-.028m.253-.054l.226-.184-.163.023-.236.199.172-.038m.247-.071l.199-.158-.147.032-.208.173.155-.047m.24-.087l.168-.129-.126.037-.174.142.132-.05m.234-.102l.126-.093-.095.035-.129.103.097-.045zm.226-.118l.06-.042-.038.017-.055.044.034-.019zm-.454.263l-.061.045.037-.019.067-.043-.043.018zm-.24.088l-.142.106.108-.047.14-.096-.105.036m-.247.072l-.191.146.145-.052.184-.132-.139.038m-.253.055l-.226.177.17-.048.218-.162-.162.033m-.258.037l-.256.204.187-.04.246-.188-.178.024m-.262.02l-.281.227.2-.028.27-.211-.19.013m-.266.002l-.303.249.21-.016.292-.233h-.2m-.27-.016l-.323.27.218-.002.312-.254-.208-.014m-.273-.034l-.341.289.225.013.331-.274-.214-.028m-.275-.052l-.358.308.23.028.348-.293-.219-.043m-.277-.07l-.374.326.234.043.364-.312-.224-.058m-.278-.088l-.389.344.237.059.379-.329-.227-.073m-.279-.105l-.403.36.239.074.393-.346-.229-.088m-.279-.123l-.416.376.24.089.406-.363-.231-.102m-.278-.139l-.428.392.24.103.419-.378-.232-.117m-.277-.155l-.439.406.24.118.431-.394-.232-.13m-.275-.169l-.449.42.239.131.441-.408-.23-.143m-.272-.183l-.459.432.236.144.452-.422-.229-.155m-.269-.196l-.468.444.234.156.461-.434-.227-.166m-.264-.207l-.477.455.23.167.47-.446-.223-.176m-.259-.217l-.484.463.225.178.479-.456-.219-.185m-.254-.226l-.492.472.229.177.478-.457-.214-.192m-.247-.233l-.5.479.215.192.493-.473-.209-.198m-.24-.238l-.507.485.209.197.501-.48-.202-.202m-.232-.242l-.515.489.202.201.508-.486-.123-.128-.072-.077zm-.222-.244l-.522.492.069.074.125.13.515-.49-.187-.206m-.212-.245l-.529.494.185.205.522-.493-.178-.206" fill="#009e2b"/></svg>